<svg width="400" height="400" viewBox="0 0 128 128" fill="none" xmlns="http://www.w3.org/2000/svg">
<g filter="url(#filter0_d)">
<path d="M58.6667 97.3333C58.6667 96.597 59.2636 96 60 96H68C68.7364 96 69.3333 96.597 69.3333 97.3333V111.527C69.3333 111.833 69.2242 112.13 68.9686 112.299C68.3727 112.692 66.9483 113.333 64 113.333C61.0516 113.333 59.6273 112.692 59.0314 112.299C58.7757 112.13 58.6667 111.833 58.6667 111.527V97.3333Z" fill="#884723"/>
<path fill-rule="evenodd" clip-rule="evenodd" d="M60 93.3333H68C70.2091 93.3333 72 95.1242 72 97.3333V111.527C72 112.398 71.6806 113.704 70.4369 114.525C69.3029 115.273 67.3325 116 64 116C60.6675 116 58.6971 115.273 57.5631 114.525C56.3194 113.704 56 112.398 56 111.527V97.3333C56 95.1242 57.7909 93.3333 60 93.3333ZM60 96C59.2636 96 58.6667 96.5969 58.6667 97.3333V111.527C58.6667 111.833 58.7757 112.13 59.0314 112.299C59.6273 112.692 61.0517 113.333 64 113.333C66.9483 113.333 68.3727 112.692 68.9686 112.299C69.2243 112.13 69.3333 111.833 69.3333 111.527V97.3333C69.3333 96.5969 68.7364 96 68 96H60Z" fill="#602606"/>
<path fill-rule="evenodd" clip-rule="evenodd" d="M60.0417 102C60.778 102 61.375 102.597 61.375 103.333V111.25C61.375 111.986 60.778 112.583 60.0417 112.583C59.3053 112.583 58.7083 111.986 58.7083 111.25V103.333C58.7083 102.597 59.3053 102 60.0417 102Z" fill="#9C5A36"/>
<path d="M29.3333 97.3378C37.5672 91.1318 57.2086 62.8601 66 49.5C77.8363 70.1866 95.3762 90.0113 102.667 97.3378C72.8187 111.818 41.3411 103.371 29.3333 97.3378Z" fill="#6DB859"/>
<path fill-rule="evenodd" clip-rule="evenodd" d="M66.083 46.8346C67.0094 46.8635 67.8543 47.3712 68.3146 48.1757C79.9954 68.5907 97.3652 88.2296 104.557 95.4569C105.165 96.0676 105.44 96.9344 105.296 97.7839C105.152 98.6334 104.606 99.3609 103.831 99.737C72.9936 114.698 40.6061 105.986 28.1361 99.7206C27.3121 99.3066 26.7605 98.4962 26.6775 97.5778C26.5945 96.6594 26.9919 95.7633 27.7283 95.2083C29.5229 93.8557 32.1268 91.1341 35.2585 87.408C38.346 83.7346 41.8116 79.2495 45.3138 74.5157C52.3165 65.0504 59.3964 54.6842 63.7724 48.0341C64.2818 47.2599 65.1567 46.8058 66.083 46.8346ZM29.3333 97.3378C30.1445 97.7454 31.0445 98.164 32.0269 98.5858C45.1694 104.229 73.0505 110.445 100.095 98.5279C100.953 98.1497 101.811 97.7532 102.667 97.3378C102.077 96.745 101.42 96.0704 100.704 95.3202C92.9419 87.182 78.2793 70.1426 67.5004 52.0676C66.9912 51.2138 66.4907 50.3576 66 49.5C65.4871 50.2795 64.9372 51.1097 64.3549 51.9833C55.7563 64.8827 40.0698 87.2468 31.5236 95.4375C30.7277 96.2002 29.9938 96.84 29.3333 97.3378Z" fill="#3B8327"/>
<path fill-rule="evenodd" clip-rule="evenodd" d="M61.4231 105.177C74.0442 105.91 88.538 104.192 102.667 97.3378C95.3762 90.0113 77.8363 70.1866 66 49.5C64.4385 51.873 62.5346 54.7165 60.4132 57.8233C71.7297 75.324 85.6963 91.0029 92 97.3378C81.7134 102.328 71.2331 104.596 61.4231 105.177Z" fill="#58A245"/>
<path d="M86.7261 95.6091C86.7261 96.3412 86.0979 96.9346 85.3231 96.9346C84.5482 96.9346 83.9201 96.3412 83.9201 95.6091C83.9201 94.877 84.5482 94.2836 85.3231 94.2836C86.0979 94.2836 86.7261 94.877 86.7261 95.6091Z" fill="#458634"/>
<path d="M83.055 92.4325C83.055 92.878 82.6727 93.2392 82.2011 93.2392C81.7295 93.2392 81.3472 92.878 81.3472 92.4325C81.3472 91.9869 81.7295 91.6257 82.2011 91.6257C82.6727 91.6257 83.055 91.9869 83.055 92.4325Z" fill="#458634"/>
<path d="M71.9888 95.0904C71.9888 95.5359 71.6065 95.8971 71.1349 95.8971C70.6632 95.8971 70.2809 95.5359 70.2809 95.0904C70.2809 94.6448 70.6632 94.2836 71.1349 94.2836C71.6065 94.2836 71.9888 94.6448 71.9888 95.0904Z" fill="#458634"/>
<path d="M65.7079 101.364C65.7079 101.81 65.3256 102.171 64.8539 102.171C64.3823 102.171 64 101.81 64 101.364C64 100.919 64.3823 100.558 64.8539 100.558C65.3256 100.558 65.7079 100.919 65.7079 101.364Z" fill="#458634"/>
<path d="M78.7743 95.6091C78.7743 96.3412 78.1461 96.9346 77.3713 96.9346C76.5964 96.9346 75.9683 96.3412 75.9683 95.6091C75.9683 94.877 76.5964 94.2836 77.3713 94.2836C78.1461 94.2836 78.7743 94.877 78.7743 95.6091Z" fill="#458634"/>
<path d="M73.9409 101.364C73.9409 102.096 73.3128 102.69 72.5379 102.69C71.7631 102.69 71.1349 102.096 71.1349 101.364C71.1349 100.632 71.7631 100.039 72.5379 100.039C73.3128 100.039 73.9409 100.632 73.9409 101.364Z" fill="#458634"/>
<path d="M93.4481 91.6257C93.4481 92.1113 93.0314 92.505 92.5174 92.505C92.0034 92.505 91.5868 92.1113 91.5868 91.6257C91.5868 91.1401 92.0034 90.7465 92.5174 90.7465C93.0314 90.7465 93.4481 91.1401 93.4481 91.6257Z" fill="#458634"/>
<path d="M89.5731 88.5806C89.5731 89.6894 88.6217 90.5882 87.4481 90.5882C86.2745 90.5882 85.3231 89.6894 85.3231 88.5806C85.3231 87.4718 86.2745 86.5729 87.4481 86.5729C88.6217 86.5729 89.5731 87.4718 89.5731 88.5806Z" fill="#458634"/>
<path d="M95.2397 96.0334C95.2397 97.1422 94.2884 98.0411 93.1147 98.0411C91.9411 98.0411 90.9897 97.1422 90.9897 96.0334C90.9897 94.9246 91.9411 94.0258 93.1147 94.0258C94.2884 94.0258 95.2397 94.9246 95.2397 96.0334Z" fill="#458634"/>
<path d="M83.4722 99.3567C83.4722 100.465 82.5208 101.364 81.3472 101.364C80.1736 101.364 79.2222 100.465 79.2222 99.3567C79.2222 98.2479 80.1736 97.349 81.3472 97.349C82.5208 97.349 83.4722 98.2479 83.4722 99.3567Z" fill="#458634"/>
<path fill-rule="evenodd" clip-rule="evenodd" d="M52.1098 74.6476C52.7646 74.9844 53.0225 75.7883 52.6857 76.4431C47.8029 85.9374 40.2826 94.603 37.1095 97.7761C36.5888 98.2968 35.7446 98.2968 35.2239 97.7761C34.7032 97.2554 34.7032 96.4112 35.2239 95.8905C38.2729 92.8414 45.5971 84.3959 50.3143 75.2235C50.6511 74.5687 51.4549 74.3108 52.1098 74.6476Z" fill="#7BD264"/>
<path d="M35.1666 74.0085C41.7163 69.0993 57.3401 46.7351 64.3333 36.1667C73.7485 52.5307 87.7008 68.2129 93.5 74.0085C69.7573 85.4634 44.7183 78.7814 35.1666 74.0085Z" fill="#72CC52"/>
<path fill-rule="evenodd" clip-rule="evenodd" d="M64.4166 33.5013C65.3405 33.5302 66.1837 34.0355 66.6447 34.8368C75.9035 50.929 89.6847 66.4255 95.385 72.1223C95.9961 72.7331 96.2735 73.602 96.1292 74.4539C95.9849 75.3057 95.4369 76.0349 94.6587 76.4103C69.9312 88.3402 43.9873 81.3972 33.9747 76.394C33.1477 75.9807 32.5937 75.1687 32.5107 74.2479C32.4277 73.3272 32.8275 72.4292 33.5673 71.8747C34.9405 70.8454 36.977 68.7356 39.467 65.7895C41.9127 62.8958 44.6618 59.358 47.4441 55.6181C53.0069 48.1408 58.6327 39.9493 62.1094 34.6951C62.6196 33.9242 63.4926 33.4724 64.4166 33.5013ZM35.1666 74.0085C35.9652 74.4076 36.872 74.8199 37.8773 75.2339C48.4598 79.5923 69.9521 84.1312 90.9119 75.1844C91.7758 74.8157 92.6387 74.424 93.5 74.0085C92.9216 73.4305 92.2621 72.7542 91.5342 71.9886C85.3432 65.4781 74.1976 52.5156 65.8402 38.7177C65.3268 37.8701 64.8239 37.0193 64.3333 36.1667C63.827 36.9318 63.2755 37.7587 62.6855 38.6364C55.9237 48.6945 44.1033 65.4145 37.3355 72.0913C36.5366 72.8795 35.8081 73.5277 35.1666 74.0085Z" fill="#3B8327"/>
<path fill-rule="evenodd" clip-rule="evenodd" d="M48.5641 78.5245C60.6291 81.2013 77.3639 81.7935 93.5 74.0085C87.7008 68.2129 73.7485 52.5307 64.3333 36.1667C63.2639 37.7828 61.9927 39.6748 60.583 41.738C69.5471 55.4525 80.5243 67.7027 85.4999 72.6752C72.6861 78.8573 59.4947 79.7567 48.5641 78.5245Z" fill="#5DA744"/>
<path d="M78.9548 71.8021C78.9548 72.3994 78.4423 72.8836 77.8101 72.8836C77.1779 72.8836 76.6654 72.3994 76.6654 71.8021C76.6654 71.2048 77.1779 70.7206 77.8101 70.7206C78.4423 70.7206 78.9548 71.2048 78.9548 71.8021Z" fill="#4A9736"/>
<path d="M75.9597 69.2104C75.9597 69.5739 75.6477 69.8686 75.263 69.8686C74.8782 69.8686 74.5663 69.5739 74.5663 69.2104C74.5663 68.8468 74.8782 68.5521 75.263 68.5521C75.6477 68.5521 75.9597 68.8468 75.9597 69.2104Z" fill="#4A9736"/>
<path d="M66.931 71.3789C66.931 71.7424 66.619 72.0371 66.2342 72.0371C65.8495 72.0371 65.5375 71.7424 65.5375 71.3789C65.5375 71.0153 65.8495 70.7206 66.2342 70.7206C66.619 70.7206 66.931 71.0153 66.931 71.3789Z" fill="#4A9736"/>
<path d="M61.8065 76.4977C61.8065 76.8613 61.4946 77.156 61.1098 77.156C60.725 77.156 60.4131 76.8613 60.4131 76.4977C60.4131 76.1342 60.725 75.8395 61.1098 75.8395C61.4946 75.8395 61.8065 76.1342 61.8065 76.4977Z" fill="#4A9736"/>
<path d="M72.467 71.8021C72.467 72.3994 71.9546 72.8836 71.3224 72.8836C70.6902 72.8836 70.1777 72.3994 70.1777 71.8021C70.1777 71.2048 70.6902 70.7206 71.3224 70.7206C71.9546 70.7206 72.467 71.2048 72.467 71.8021Z" fill="#4A9736"/>
<path d="M68.5237 76.4976C68.5237 77.0949 68.0112 77.5791 67.379 77.5791C66.7468 77.5791 66.2343 77.0949 66.2343 76.4976C66.2343 75.9004 66.7468 75.4162 67.379 75.4162C68.0112 75.4162 68.5237 75.9004 68.5237 76.4976Z" fill="#4A9736"/>
<path d="M84.4391 68.5522C84.4391 68.9484 84.0991 69.2695 83.6798 69.2695C83.2604 69.2695 82.9205 68.9484 82.9205 68.5522C82.9205 68.156 83.2604 67.8348 83.6798 67.8348C84.0991 67.8348 84.4391 68.156 84.4391 68.5522Z" fill="#4A9736"/>
<path d="M81.2776 66.0677C81.2776 66.9724 80.5013 67.7057 79.5438 67.7057C78.5863 67.7057 77.8101 66.9724 77.8101 66.0677C77.8101 65.1631 78.5863 64.4297 79.5438 64.4297C80.5013 64.4297 81.2776 65.1631 81.2776 66.0677Z" fill="#4A9736"/>
<path d="M85.9009 72.1483C85.9009 73.0529 85.1247 73.7863 84.1671 73.7863C83.2096 73.7863 82.4334 73.0529 82.4334 72.1483C82.4334 71.2436 83.2096 70.5103 84.1671 70.5103C85.1247 70.5103 85.9009 71.2436 85.9009 72.1483Z" fill="#4A9736"/>
<path d="M76.3 74.8596C76.3 75.7643 75.5238 76.4976 74.5662 76.4976C73.6087 76.4976 72.8325 75.7643 72.8325 74.8596C72.8325 73.955 73.6087 73.2216 74.5662 73.2216C75.5238 73.2216 76.3 73.955 76.3 74.8596Z" fill="#4A9736"/>
<path fill-rule="evenodd" clip-rule="evenodd" d="M58.2595 51.4106C58.9144 51.7474 59.1722 52.5513 58.8355 53.2061C53.9527 62.7004 46.4324 71.366 43.2592 74.5391C42.7385 75.0598 41.8943 75.0598 41.3736 74.5391C40.8529 74.0184 40.8529 73.1742 41.3736 72.6535C44.4227 69.6044 51.7468 61.1589 56.464 51.9865C56.8008 51.3317 57.6047 51.0738 58.2595 51.4106Z" fill="#8BF26F"/>
<path d="M41 49.0833C46.3333 45.0833 59.0556 26.8611 64.75 18.25C72.4167 31.5833 83.7778 44.3611 88.5 49.0833C69.1667 58.4167 48.7778 52.9722 41 49.0833Z" fill="#82E360"/>
<path fill-rule="evenodd" clip-rule="evenodd" d="M64.8332 15.5846C65.7575 15.6135 66.6008 16.1191 67.0618 16.9207C74.5721 29.9823 85.7623 42.5744 90.3856 47.1977C90.9964 47.8085 91.2735 48.6772 91.1292 49.5288C90.9849 50.3803 90.4372 51.1093 89.6593 51.4848C69.3407 61.2938 48.0463 55.5879 39.8074 51.4685C38.9808 51.0552 38.4271 50.2433 38.3441 49.3228C38.2611 48.4023 38.6606 47.5045 39.4 46.95C40.4692 46.1481 42.0963 44.4677 44.1229 42.0683C46.1053 39.7214 48.3372 36.8477 50.5996 33.8048C55.1226 27.7212 59.6983 21.0546 62.5257 16.7791C63.0358 16.0078 63.909 15.5558 64.8332 15.5846ZM41 49.0833C41.7831 49.4749 42.694 49.8822 43.7188 50.2886C52.4177 53.7383 69.3226 57.1231 85.9026 50.2477C86.7697 49.8881 87.6359 49.5005 88.5 49.0833C87.9359 48.5192 87.277 47.8401 86.5409 47.0588C81.5093 41.7177 72.873 31.6012 66.2608 20.7949C65.744 19.9502 65.2395 19.1012 64.75 18.25C64.2513 19.0041 63.6988 19.8318 63.102 20.7173C57.6767 28.7674 48.5971 41.5864 43.138 47.148C42.3405 47.9605 41.6203 48.6181 41 49.0833Z" fill="#3B8327"/>
<path fill-rule="evenodd" clip-rule="evenodd" d="M47.719 51.672C57.5915 54.6409 73.369 56.3879 88.5 49.0833C83.7778 44.3611 72.4167 31.5833 64.75 18.25C64.0566 19.2986 63.2589 20.4898 62.3831 21.7804C69.7685 33.2612 79.0232 43.6066 83.1666 47.75C70.5295 53.8507 57.4414 53.6375 47.719 51.672Z" fill="#70CA4F"/>
<path d="M78.5141 47.2266C78.5141 47.6707 78.1329 48.0308 77.6628 48.0308C77.1926 48.0308 76.8115 47.6707 76.8115 47.2266C76.8115 46.7824 77.1926 46.4223 77.6628 46.4223C78.1329 46.4223 78.5141 46.7824 78.5141 47.2266Z" fill="#5CA848"/>
<path d="M76.2867 45.2991C76.2867 45.5695 76.0547 45.7886 75.7685 45.7886C75.4824 45.7886 75.2504 45.5695 75.2504 45.2991C75.2504 45.0288 75.4824 44.8096 75.7685 44.8096C76.0547 44.8096 76.2867 45.0288 76.2867 45.2991Z" fill="#5CA848"/>
<path d="M69.5722 46.9118C69.5722 47.1822 69.3402 47.4013 69.0541 47.4013C68.7679 47.4013 68.536 47.1822 68.536 46.9118C68.536 46.6415 68.7679 46.4223 69.0541 46.4223C69.3402 46.4223 69.5722 46.6415 69.5722 46.9118Z" fill="#5CA848"/>
<path d="M65.7613 50.7186C65.7613 50.989 65.5293 51.2081 65.2431 51.2081C64.957 51.2081 64.725 50.989 64.725 50.7186C64.725 50.4483 64.957 50.2291 65.2431 50.2291C65.5293 50.2291 65.7613 50.4483 65.7613 50.7186Z" fill="#5CA848"/>
<path d="M73.6893 47.2266C73.6893 47.6707 73.3082 48.0308 72.838 48.0308C72.3679 48.0308 71.9868 47.6707 71.9868 47.2266C71.9868 46.7824 72.3679 46.4223 72.838 46.4223C73.3082 46.4223 73.6893 46.7824 73.6893 47.2266Z" fill="#5CA848"/>
<path d="M70.7567 50.7185C70.7567 51.1627 70.3755 51.5228 69.9054 51.5228C69.4353 51.5228 69.0541 51.1627 69.0541 50.7185C69.0541 50.2743 69.4353 49.9142 69.9054 49.9142C70.3755 49.9142 70.7567 50.2743 70.7567 50.7185Z" fill="#5CA848"/>
<path d="M82.5926 44.8097C82.5926 45.1043 82.3398 45.3432 82.0279 45.3432C81.7161 45.3432 81.4633 45.1043 81.4633 44.8097C81.4633 44.515 81.7161 44.2762 82.0279 44.2762C82.3398 44.2762 82.5926 44.515 82.5926 44.8097Z" fill="#5CA848"/>
<path d="M80.2415 42.962C80.2415 43.6348 79.6642 44.1802 78.9521 44.1802C78.24 44.1802 77.6628 43.6348 77.6628 42.962C77.6628 42.2892 78.24 41.7439 78.9521 41.7439C79.6642 41.7439 80.2415 42.2892 80.2415 42.962Z" fill="#5CA848"/>
<path d="M83.6797 47.484C83.6797 48.1567 83.1025 48.7021 82.3904 48.7021C81.6783 48.7021 81.101 48.1567 81.101 47.484C81.101 46.8112 81.6783 46.2658 82.3904 46.2658C83.1025 46.2658 83.6797 46.8112 83.6797 47.484Z" fill="#5CA848"/>
<path d="M76.5397 49.5004C76.5397 50.1732 75.9625 50.7185 75.2504 50.7185C74.5383 50.7185 73.9611 50.1732 73.9611 49.5004C73.9611 48.8276 74.5383 48.2822 75.2504 48.2822C75.9625 48.2822 76.5397 48.8276 76.5397 49.5004Z" fill="#5CA848"/>
<path fill-rule="evenodd" clip-rule="evenodd" d="M64.0141 25.077C64.6689 25.4138 64.9268 26.2176 64.59 26.8725C59.7072 36.3668 52.1869 45.0324 49.0138 48.2055C48.4931 48.7262 47.6488 48.7262 47.1281 48.2055C46.6075 47.6848 46.6075 46.8406 47.1281 46.3199C50.1772 43.2708 57.5014 34.8253 62.2186 25.6529C62.5554 24.998 63.3592 24.7402 64.0141 25.077Z" fill="#C4FFB0"/>
<path d="M80.2148 51.5228C80.2148 53.9692 78.2316 55.9525 75.7852 55.9525C73.3387 55.9525 71.3555 53.9692 71.3555 51.5228C71.3555 49.0763 73.3387 47.0931 75.7852 47.0931C78.2316 47.0931 80.2148 49.0763 80.2148 51.5228Z" fill="#ED3333"/>
<path fill-rule="evenodd" clip-rule="evenodd" d="M82.8815 51.5228C82.8815 55.442 79.7044 58.6191 75.7852 58.6191C71.866 58.6191 68.6888 55.442 68.6888 51.5228C68.6888 47.6036 71.866 44.4264 75.7852 44.4264C79.7044 44.4264 82.8815 47.6036 82.8815 51.5228ZM75.7852 55.9525C78.2316 55.9525 80.2149 53.9692 80.2149 51.5228C80.2149 49.0763 78.2316 47.0931 75.7852 47.0931C73.3387 47.0931 71.3555 49.0763 71.3555 51.5228C71.3555 53.9692 73.3387 55.9525 75.7852 55.9525Z" fill="#9D0C0C"/>
<path d="M56.4479 42.3398C56.4479 44.234 54.9124 45.7695 53.0182 45.7695C51.1241 45.7695 49.5885 44.234 49.5885 42.3398C49.5885 40.4457 51.1241 38.9102 53.0182 38.9102C54.9124 38.9102 56.4479 40.4457 56.4479 42.3398Z" fill="#ED3333"/>
<path fill-rule="evenodd" clip-rule="evenodd" d="M59.1146 42.3398C59.1146 45.7068 56.3852 48.4362 53.0182 48.4362C49.6513 48.4362 46.9219 45.7068 46.9219 42.3398C46.9219 38.9729 49.6513 36.2435 53.0182 36.2435C56.3852 36.2435 59.1146 38.9729 59.1146 42.3398ZM53.0182 45.7695C54.9124 45.7695 56.4479 44.234 56.4479 42.3398C56.4479 40.4457 54.9124 38.9102 53.0182 38.9102C51.1241 38.9102 49.5885 40.4457 49.5885 42.3398C49.5885 44.234 51.1241 45.7695 53.0182 45.7695Z" fill="#9D0C0C"/>
<path d="M54.0182 64.4297C54.0182 66.8761 52.035 68.8594 49.5885 68.8594C47.1421 68.8594 45.1589 66.8761 45.1589 64.4297C45.1589 61.9832 47.1421 60 49.5885 60C52.035 60 54.0182 61.9832 54.0182 64.4297Z" fill="#ED3333"/>
<path fill-rule="evenodd" clip-rule="evenodd" d="M56.6849 64.4297C56.6849 68.3489 53.5077 71.5261 49.5885 71.5261C45.6693 71.5261 42.4922 68.3489 42.4922 64.4297C42.4922 60.5105 45.6693 57.3333 49.5885 57.3333C53.5077 57.3333 56.6849 60.5105 56.6849 64.4297ZM49.5885 68.8594C52.035 68.8594 54.0182 66.8761 54.0182 64.4297C54.0182 61.9832 52.035 60 49.5885 60C47.1421 60 45.1589 61.9832 45.1589 64.4297C45.1589 66.8761 47.1421 68.8594 49.5885 68.8594Z" fill="#9D0C0C"/>
<path d="M88.6393 77.4167C88.6393 80.3873 86.2311 82.7956 83.2604 82.7956C80.2897 82.7956 77.8815 80.3873 77.8815 77.4167C77.8815 74.446 80.2897 72.0378 83.2604 72.0378C86.2311 72.0378 88.6393 74.446 88.6393 77.4167Z" fill="#ED3333"/>
<path fill-rule="evenodd" clip-rule="evenodd" d="M91.306 77.4167C91.306 81.8601 87.7039 85.4622 83.2604 85.4622C78.817 85.4622 75.2148 81.8601 75.2148 77.4167C75.2148 72.9732 78.817 69.3711 83.2604 69.3711C87.7039 69.3711 91.306 72.9732 91.306 77.4167ZM83.2604 82.7956C86.2311 82.7956 88.6393 80.3874 88.6393 77.4167C88.6393 74.446 86.2311 72.0378 83.2604 72.0378C80.2897 72.0378 77.8815 74.446 77.8815 77.4167C77.8815 80.3874 80.2897 82.7956 83.2604 82.7956Z" fill="#9D0C0C"/>
<path d="M72.0508 96.901C72.0508 99.3475 70.0675 101.331 67.6211 101.331C65.1746 101.331 63.1914 99.3475 63.1914 96.901C63.1914 94.4546 65.1746 92.4713 67.6211 92.4713C70.0675 92.4713 72.0508 94.4546 72.0508 96.901Z" fill="#ED3333"/>
<path fill-rule="evenodd" clip-rule="evenodd" d="M74.7174 96.901C74.7174 100.82 71.5403 103.997 67.6211 103.997C63.7019 103.997 60.5247 100.82 60.5247 96.901C60.5247 92.9818 63.7019 89.8047 67.6211 89.8047C71.5403 89.8047 74.7174 92.9818 74.7174 96.901ZM67.6211 101.331C70.0675 101.331 72.0508 99.3475 72.0508 96.901C72.0508 94.4546 70.0675 92.4714 67.6211 92.4714C65.1746 92.4714 63.1914 94.4546 63.1914 96.901C63.1914 99.3475 65.1746 101.331 67.6211 101.331Z" fill="#9D0C0C"/>
<path d="M44.026 89.375C44.026 91.8214 42.0428 93.8047 39.5964 93.8047C37.1499 93.8047 35.1667 91.8214 35.1667 89.375C35.1667 86.9286 37.1499 84.9453 39.5964 84.9453C42.0428 84.9453 44.026 86.9286 44.026 89.375Z" fill="#ED3333"/>
<path fill-rule="evenodd" clip-rule="evenodd" d="M46.6927 89.375C46.6927 93.2942 43.5156 96.4714 39.5964 96.4714C35.6771 96.4714 32.5 93.2942 32.5 89.375C32.5 85.4558 35.6771 82.2787 39.5964 82.2787C43.5156 82.2787 46.6927 85.4558 46.6927 89.375ZM39.5964 93.8047C42.0428 93.8047 44.026 91.8215 44.026 89.375C44.026 86.9286 42.0428 84.9453 39.5964 84.9453C37.1499 84.9453 35.1667 86.9286 35.1667 89.375C35.1667 91.8215 37.1499 93.8047 39.5964 93.8047Z" fill="#9D0C0C"/>
<path d="M73.4518 30.5104C73.4518 32.2579 72.0352 33.6745 70.2878 33.6745C68.5403 33.6745 67.1237 32.2579 67.1237 30.5104C67.1237 28.763 68.5403 27.3464 70.2878 27.3464C72.0352 27.3464 73.4518 28.763 73.4518 30.5104Z" fill="#ED3333"/>
<path fill-rule="evenodd" clip-rule="evenodd" d="M76.1185 30.5104C76.1185 33.7306 73.508 36.3411 70.2878 36.3411C67.0675 36.3411 64.457 33.7306 64.457 30.5104C64.457 27.2902 67.0675 24.6797 70.2878 24.6797C73.508 24.6797 76.1185 27.2902 76.1185 30.5104ZM70.2878 33.6745C72.0352 33.6745 73.4518 32.2579 73.4518 30.5104C73.4518 28.763 72.0352 27.3464 70.2878 27.3464C68.5403 27.3464 67.1237 28.763 67.1237 30.5104C67.1237 32.2579 68.5403 33.6745 70.2878 33.6745Z" fill="#9D0C0C"/>
<path d="M75.7852 48.3509C75.7852 49.1891 75.1057 49.8685 74.2676 49.8685C73.4294 49.8685 72.75 49.1891 72.75 48.3509C72.75 47.5128 73.4294 46.8333 74.2676 46.8333C75.1057 46.8333 75.7852 47.5128 75.7852 48.3509Z" fill="#FF8989"/>
<path d="M53.0182 40.2676C53.0182 41.1057 52.3388 41.7852 51.5007 41.7852C50.6625 41.7852 49.9831 41.1057 49.9831 40.2676C49.9831 39.4294 50.6625 38.75 51.5007 38.75C52.3388 38.75 53.0182 39.4294 53.0182 40.2676Z" fill="#FF8989"/>
<path d="M70.8516 28.1842C70.8516 29.0224 70.1721 29.7018 69.334 29.7018C68.4958 29.7018 67.8164 29.0224 67.8164 28.1842C67.8164 27.3461 68.4958 26.6667 69.334 26.6667C70.1721 26.6667 70.8516 27.3461 70.8516 28.1842Z" fill="#FF8989"/>
<path d="M49.5885 61.5788C49.5885 62.4169 48.9091 63.0964 48.071 63.0964C47.2328 63.0964 46.5534 62.4169 46.5534 61.5788C46.5534 60.7407 47.2328 60.0612 48.071 60.0612C48.9091 60.0612 49.5885 60.7407 49.5885 61.5788Z" fill="#FF8989"/>
<path d="M83.2604 74.125C83.2604 75.2066 82.3836 76.0834 81.3021 76.0834C80.2205 76.0834 79.3438 75.2066 79.3438 74.125C79.3438 73.0435 80.2205 72.1667 81.3021 72.1667C82.3836 72.1667 83.2604 73.0435 83.2604 74.125Z" fill="#FF8989"/>
<path d="M67.6211 96.1491C67.6211 96.9872 66.9417 97.6667 66.1035 97.6667C65.2654 97.6667 64.5859 96.9872 64.5859 96.1491C64.5859 95.311 65.2654 94.6315 66.1035 94.6315C66.9417 94.6315 67.6211 95.311 67.6211 96.1491Z" fill="#FF8989"/>
<path d="M39.0378 85.6491C39.0378 86.4872 38.3583 87.1667 37.5202 87.1667C36.6821 87.1667 36.0026 86.4872 36.0026 85.6491C36.0026 84.811 36.6821 84.1315 37.5202 84.1315C38.3583 84.1315 39.0378 84.811 39.0378 85.6491Z" fill="#FF8989"/>
<path d="M58.6714 12.7689L62.6516 11.9843L63.8551 9.97626L65.0586 7.96819L67.4226 12.0098L71.3942 12.8368L68.1963 16.0429L68.97 20.076L65.0049 18.0404L61.0182 20.0336L61.8349 16.009L58.6714 12.7689Z" fill="#FFE24B"/>
<path fill-rule="evenodd" clip-rule="evenodd" d="M62.6515 11.9843L65.0586 7.96818L67.4226 12.0098L71.3941 12.8368L68.1963 16.0429L68.9699 20.076L65.0048 18.0404L61.0182 20.0336L61.8349 16.009L58.6714 12.7689L62.6515 11.9843ZM60.3878 16.4355L57.7174 13.7004C57.3754 13.3501 57.2528 12.8406 57.3981 12.3731C57.5434 11.9057 57.9332 11.5554 58.4135 11.4607L61.8124 10.7907L63.9149 7.28274C64.1571 6.87864 64.5946 6.63235 65.0657 6.63486C65.5368 6.63738 65.9716 6.88832 66.2095 7.29499L68.2744 10.8252L71.666 11.5314C72.1452 11.6312 72.5312 11.9856 72.6715 12.4546C72.8118 12.9236 72.6839 13.4318 72.3382 13.7784L69.6387 16.4848L70.2794 19.8248C70.3755 20.3256 70.1775 20.8373 69.7694 21.1431C69.3613 21.4488 68.8146 21.4951 68.361 21.2622L64.9968 19.5351L61.6145 21.2262C61.1584 21.4542 60.6122 21.4022 60.2074 21.0921C59.8026 20.782 59.6101 20.2682 59.7115 19.7684L60.3878 16.4355Z" fill="#D97D11"/>
</g>
<defs>
<filter id="filter0_d" x="0" y="0" width="132" height="132" filterUnits="userSpaceOnUse" color-interpolation-filters="sRGB">
<feFlood flood-opacity="0" result="BackgroundImageFix"/>
<feColorMatrix in="SourceAlpha" type="matrix" values="0 0 0 0 0 0 0 0 0 0 0 0 0 0 0 0 0 0 127 0" result="hardAlpha"/>
<feOffset dx="4" dy="4"/>
<feColorMatrix type="matrix" values="0 0 0 0 0 0 0 0 0 0 0 0 0 0 0 0 0 0 0.2 0"/>
<feBlend mode="normal" in2="BackgroundImageFix" result="effect1_dropShadow"/>
<feBlend mode="normal" in="SourceGraphic" in2="effect1_dropShadow" result="shape"/>
</filter>
</defs>
</svg>
